<svg xmlns="http://www.w3.org/2000/svg" version="1.1" xmlns:xlink="http://www.w3.org/1999/xlink" xmlns:svgjs="http://svgjs.com/svgjs" height="248.46745485962788" width="243.66403198242188"><g id="SvgjsG1052" rel="mainfill" name="main_text" xmlns:name="mainText_mainfill" fill="#8519a2" transform="translate(48.17599928379059,75.93499657959421)"><path d="M11.232 33.312 q2.304 0 4.896 1.296 l0 -12 l0.336 -0.336 l2.4 0 q1.872 0 2.64 0.864 t0.768 3.024 l0 24.576 q0 2.928 1.344 3.984 q-0.192 0.864 -0.792 1.824 t-1.272 1.44 q-3.12 -0.288 -4.512 -2.832 q-2.832 3.12 -6.864 3.12 q-2.064 0 -3.624 -0.888 t-2.616 -2.496 t-1.584 -3.912 t-0.528 -5.184 q0 -2.928 0.744 -5.232 t2.016 -3.912 t2.976 -2.472 t3.672 -0.864 z M11.808 53.136 q2.496 0 4.32 -2.4 l0 -11.232 q-1.056 -0.672 -2.016 -1.032 t-1.776 -0.36 q-1.872 0 -3 1.968 t-1.128 5.808 q0 3.744 1.008 5.496 t2.592 1.752 z M27.552 36.672 q0.192 -0.864 0.792 -1.824 t1.224 -1.44 q3.888 0.48 5.328 4.32 q1.824 -4.272 6.096 -4.272 q1.584 0 2.88 0.336 q0 3.36 -1.536 5.856 q-0.72 -0.24 -2.208 -0.336 q-2.784 0 -4.512 2.976 l0 15.312 q-1.44 0.24 -3.096 0.24 t-3.192 -0.24 l0 -15.984 q0 -3.408 -1.776 -4.944 z M54.480000000000004 38.64 l0 18.96 q-0.72 0.144 -1.512 0.192 t-1.608 0.048 t-1.608 -0.048 t-1.56 -0.192 l0 -16.704 q0 -2.64 -2.16 -2.64 l-0.624 0 q-0.288 -1.056 -0.288 -2.208 q0 -1.056 0.288 -2.208 q1.104 -0.096 2.04 -0.168 t1.608 -0.072 l0.816 0 q2.16 0 3.384 1.344 t1.224 3.696 z M47.232000000000006 24.528 q1.104 -0.624 3.168 -0.624 q1.2 0 1.944 0.192 t1.08 0.456 t0.432 0.984 t0.096 1.488 q-0.144 2.448 -0.6 2.688 t-3 0.48 q-2.688 -0.096 -3.144 -0.72 t-0.456 -2.448 q0 -1.392 0.48 -2.496 z M72.096 58.032000000000004 q-2.496 0 -4.944 -1.296 l0 7.344 q0 2.16 -0.768 3.024 t-2.64 0.864 l-2.448 0 l-0.288 -0.336 l0 -33.792 l0.288 -0.336 l1.776 0 q2.544 0 3.552 2.352 q2.736 -2.736 6.624 -2.736 q3.936 0 6.096 3.336 t2.16 9.144 q0 2.88 -0.744 5.184 t-2.016 3.912 t-2.976 2.472 t-3.672 0.864 z M71.52000000000001 38.208 q-2.592 0 -4.368 2.496 l0 11.136 q2.112 1.392 3.84 1.392 q2.016 0 3.072 -2.04 t1.056 -5.736 q0 -3.744 -1.008 -5.496 t-2.592 -1.752 z M97.72800000000001 58.032000000000004 q-2.496 0 -4.944 -1.296 l0 7.344 q0 2.16 -0.768 3.024 t-2.64 0.864 l-2.448 0 l-0.288 -0.336 l0 -33.792 l0.288 -0.336 l1.776 0 q2.544 0 3.552 2.352 q2.736 -2.736 6.624 -2.736 q3.936 0 6.096 3.336 t2.16 9.144 q0 2.88 -0.744 5.184 t-2.016 3.912 t-2.976 2.472 t-3.672 0.864 z M97.152 38.208 q-2.592 0 -4.368 2.496 l0 11.136 q2.112 1.392 3.84 1.392 q2.016 0 3.072 -2.04 t1.056 -5.736 q0 -3.744 -1.008 -5.496 t-2.592 -1.752 z M120.33600000000001 52.992000000000004 l1.488 0 q0.528 1.344 0.528 2.592 t-0.144 1.824 q-2.928 0.432 -4.656 0.432 q-2.784 0 -4.08 -1.416 t-1.296 -4.44 l0 -29.376 l0.336 -0.336 l2.4 0 q1.872 0 2.64 0.888 t0.768 3 l0 24.624 q0 2.208 2.016 2.208 z M144.96 47.712 l-13.248 0 q0.144 2.64 1.224 4.152 t3.768 1.512 q2.784 0 6.384 -1.632 q1.392 1.44 1.776 3.792 q-3.84 2.736 -9.216 2.736 q-5.088 0 -7.704 -3.144 t-2.616 -9.336 q0 -2.88 0.672 -5.208 t1.968 -3.984 t3.168 -2.568 t4.272 -0.912 q2.448 0 4.32 0.744 t3.168 2.112 t1.944 3.24 t0.648 4.08 q0 1.2 -0.144 2.28 t-0.384 2.136 z M135.696 37.632000000000005 q-3.744 0 -4.032 5.664 l7.968 0 l0 -0.576 q0 -2.304 -0.96 -3.696 t-2.976 -1.392 z"></path></g><defs id="SvgjsDefs1048"><linearGradient id="SvgjsLinearGradient1049"><stop id="SvgjsStop1050" stop-color="#b88746" offset="0"></stop><stop id="SvgjsStop1051" stop-color="#fdf5a6" offset="1"></stop></linearGradient></defs><g id="SvgjsG1053" rel="mainfill" name="slogan_text" xmlns:name="sloganText_mainfill" fill="#8519a2" transform="translate(77.4717006124556,134.29558274597605)"><path d="M3.9648 22.929675 q0.458984375 -0.263671875 0.537109375 0.17578125 q0.0390625 0.185546875 -0.1953125 0.361328125 q-0.107421875 0.078125 -0.2001953125 0.1318359375 t-0.1709 0.083008 q-0.224609375 0.09765625 -0.4052734375 0.1416015625 t-0.31738 0.063477 q-0.25390625 0.01953125 -0.537109375 0.01953125 t-0.5957 -0.048828 q-0.634765625 -0.09765625 -1.025390625 -0.439453125 q-0.361328125 -0.302734375 -0.595703125 -0.732421875 t-0.38086 -0.86914 l-0.019531 -0.058594 q-0.087890625 -0.283203125 -0.0634765625 -0.6298828125 t0.014648 -0.64941 q0 -0.234375 0.009765625 -0.4150390625 t0.048828 -0.30762 q0.068359375 -0.244140625 0.3125 -0.6640625 q0.263671875 -0.46875 0.595703125 -0.810546875 t0.89844 -0.45898 q0.146484375 -0.01953125 0.5078125 -0.1171875 q0.107421875 -0.029296875 0.2392578125 -0.048828125 t0.29785 -0.0097656 q0.126953125 0 0.2978515625 0.029296875 t0.39551 0.078125 q0.15625 0.048828125 0.478515625 0.205078125 q0.302734375 0.126953125 0.361328125 0.341796875 q0.01953125 0.078125 -0.01953125 0.166015625 q-0.087890625 0.146484375 -0.205078125 0.17578125 q-0.068359375 0.01953125 -0.1708984375 0 t-0.24902 -0.097656 q-0.1953125 -0.09765625 -0.361328125 -0.166015625 t-0.33691 -0.10254 t-0.35156 -0.024414 t-0.39551 0.068359 q-0.5078125 0.15625 -0.712890625 0.263671875 q-0.21484375 0.1171875 -0.5078125 0.556640625 q-0.234375 0.341796875 -0.3564453125 0.7177734375 t-0.1416 0.77148 t0.063477 0.78613 t0.25879 0.75195 l0 0.0097656 l0.0097656 0 q0.419921875 0.78125 1.201171875 0.9765625 q0.56640625 0.13671875 0.87890625 0.05859375 q0.087890625 -0.009765625 0.166015625 -0.029296875 t0.16602 -0.039063 q0.33203125 -0.068359375 0.576171875 -0.21484375 z M8.759746875 23.818355 q-0.1953125 -0.05859375 -0.3955078125 -0.1513671875 t-0.39063 -0.21484 t-0.35645 -0.27344 t-0.2832 -0.32715 q-0.15625 -0.244140625 -0.224609375 -0.5029296875 t-0.19531 -0.53223 q-0.09765625 -0.21484375 -0.107421875 -0.46875 q-0.009765625 -0.1171875 -0.0244140625 -0.2392578125 t-0.014648 -0.23926 q-0.009765625 -0.1171875 -0.0146484375 -0.205078125 t-0.0048828 -0.14648 q0 -0.185546875 0.0244140625 -0.3857421875 t0.073242 -0.41504 q0.009765625 -0.068359375 0.05859375 -0.17578125 q0.09765625 -0.29296875 0.2490234375 -0.5517578125 t0.34668 -0.4834 q0.380859375 -0.4296875 1.064453125 -0.76171875 q0.3125 -0.13671875 0.654296875 -0.126953125 q0.21484375 0.01953125 0.4296875 0.05859375 q0.17578125 0.029296875 0.3076171875 0.0439453125 t0.22949 0.03418 q0.751953125 0.087890625 1.328125 0.6640625 q0.126953125 0.126953125 0.2392578125 0.2783203125 t0.21973 0.32715 l0.048828 0.078125 q0.009765625 0.029296875 0.01953125 0.048828125 l0.019531 0.039063 q0.166015625 0.390625 0.302734375 0.9765625 q0.126953125 0.546875 0.0390625 1.005859375 q-0.05859375 0.263671875 -0.146484375 0.5078125 t-0.15625 0.48828 q-0.380859375 1.30859375 -1.71875 1.650390625 l-0.078125 0.019531 q-0.078125 0.01953125 -0.1953125 0.0390625 t-0.27344 0.039063 q-0.25390625 0.029296875 -0.5224609375 0.009765625 t-0.55176 -0.10742 z M9.746046875000001 18.232375 q-0.52734375 0 -0.9521484375 0.126953125 t-0.7666 0.46875 q-0.46875 0.46875 -0.595703125 1.040039063 t0.0097656 1.2744 l0.087891 0.47852 q0.01953125 0.13671875 0.0390625 0.2197265625 t0.029297 0.10254 q0.05859375 0.21484375 0.234375 0.41015625 t0.32227 0.3418 q0.078125 0.087890625 0.15625 0.1708984375 t0.16602 0.15137 q0.146484375 0.126953125 0.48828125 0.234375 l0.0097656 0 q0.185546875 0.048828125 0.4150390625 0.0341796875 t0.5127 -0.083008 q0.13671875 -0.0390625 0.2783203125 -0.0537109375 t0.28809 -0.053711 q0.361328125 -0.087890625 0.60546875 -0.390625 l0.0097656 0 l0 -0.0097656 q0.15625 -0.185546875 0.263671875 -0.46875 q0.09765625 -0.283203125 0.146484375 -0.361328125 q0.48828125 -0.95703125 0.146484375 -2.0703125 l-0.0097656 -0.0097656 q-0.0390625 -0.107421875 -0.078125 -0.205078125 t-0.10742 -0.19531 q-0.380859375 -0.576171875 -0.908203125 -0.830078125 q-0.01953125 -0.009765625 -0.087890625 -0.048828125 t-0.19531 -0.11719 q-0.17578125 -0.107421875 -0.498046875 -0.15625 l-0.0097656 0 z M15.57617125 23.632815 q-0.0390625 0.17578125 -0.302734375 0.205078125 q-0.2734375 -0.009765625 -0.2734375 -0.302734375 q0 -0.76171875 -0.0341796875 -1.538085938 t0.043945 -1.5381 l0 -0.0097656 q0 -0.224609375 0.0048828125 -0.439453125 t-0.014648 -0.41992 l-0.078125 -0.74219 q-0.029296875 -0.3125 0.09765625 -0.673828125 q0.09765625 -0.25390625 0.263671875 -0.302734375 q0.13671875 -0.029296875 0.283203125 0.13671875 q0.13671875 0.146484375 0.205078125 0.25390625 q0.126953125 0.185546875 0.2587890625 0.33203125 t0.25879 0.27344 q0.107421875 0.126953125 0.2197265625 0.2197265625 t0.21973 0.20996 q0.09765625 0.09765625 0.21484375 0.2490234375 t0.25391 0.35645 l0.42969 0.66406 q0.048828125 0.068359375 0.1025390625 0.15625 t0.13184 0.20508 l0.0097656 0.0097656 q0.205078125 0.2734375 0.4296875 0.517578125 q0.107421875 0.1171875 0.21484375 0.2197265625 t0.22461 0.20996 q0.107421875 0.126953125 0.25390625 0.078125 q0.224609375 -0.05859375 0.21484375 -0.44921875 q0 -0.09765625 -0.0146484375 -0.205078125 t-0.014648 -0.21484 q-0.009765625 -0.078125 -0.01953125 -0.1513671875 t-0.0097656 -0.16113 q0 -0.0390625 -0.0048828125 -0.087890625 t-0.0048828 -0.10742 q0.0390625 -0.859375 -0.05859375 -1.6015625 q-0.009765625 -0.048828125 -0.009765625 -0.1611328125 t0.019531 -0.28809 q0.009765625 -0.21484375 0.05859375 -0.458984375 q0.029296875 -0.3515625 0.3125 -0.3515625 q0.3125 0 0.3125 0.37109375 q0.009765625 0.302734375 0.0244140625 0.6103515625 t0.014648 0.61035 q0.009765625 0.44921875 -0.01953125 0.8984375 t-0.0097656 0.89844 q0.01953125 0.302734375 0.0146484375 0.595703125 t-0.014648 0.58594 q0 0.166015625 0.0048828125 0.3271484375 t0.0048828 0.30762 l0 0.39063 q-0.009765625 0.05859375 -0.0146484375 0.1171875 t-0.0048828 0.10742 q-0.009765625 0.009765625 -0.009765625 0.01953125 t-0.0097656 0.0097656 q-0.107421875 0.146484375 -0.33203125 0.146484375 q-0.263671875 0.01953125 -0.400390625 -0.166015625 q-0.146484375 -0.185546875 -0.2685546875 -0.400390625 t-0.26855 -0.41992 q-0.17578125 -0.234375 -0.3857421875 -0.5029296875 t-0.46387 -0.57129 q-0.09765625 -0.107421875 -0.2734375 -0.390625 l-0.3418 -0.54688 q-0.126953125 -0.1953125 -0.25390625 -0.3955078125 t-0.26367 -0.38574 q-0.05859375 -0.068359375 -0.126953125 -0.1513671875 t-0.14648 -0.1416 t-0.17578 -0.087891 t-0.19531 0 q-0.263671875 0.078125 -0.244140625 0.537109375 q0.009765625 0.33203125 0.0146484375 0.625 t0.024414 0.54688 q0.01953125 0.205078125 -0.0048828125 0.41015625 t-0.024414 0.40039 l0 0.76172 q0 0.244140625 -0.0146484375 0.439453125 t-0.03418 0.35156 z M23.066405625 23.632815 q-0.0390625 0.17578125 -0.302734375 0.205078125 q-0.2734375 -0.009765625 -0.2734375 -0.302734375 q0 -0.76171875 -0.0341796875 -1.538085938 t0.043945 -1.5381 l0 -0.0097656 q0 -0.224609375 0.0048828125 -0.439453125 t-0.014648 -0.41992 l-0.078125 -0.74219 q-0.029296875 -0.3125 0.09765625 -0.673828125 q0.09765625 -0.25390625 0.263671875 -0.302734375 q0.13671875 -0.029296875 0.283203125 0.13671875 q0.13671875 0.146484375 0.205078125 0.25390625 q0.126953125 0.185546875 0.2587890625 0.33203125 t0.25879 0.27344 q0.107421875 0.126953125 0.2197265625 0.2197265625 t0.21973 0.20996 q0.09765625 0.09765625 0.21484375 0.2490234375 t0.25391 0.35645 l0.42969 0.66406 q0.048828125 0.068359375 0.1025390625 0.15625 t0.13184 0.20508 l0.0097656 0.0097656 q0.205078125 0.2734375 0.4296875 0.517578125 q0.107421875 0.1171875 0.21484375 0.2197265625 t0.22461 0.20996 q0.107421875 0.126953125 0.25390625 0.078125 q0.224609375 -0.05859375 0.21484375 -0.44921875 q0 -0.09765625 -0.0146484375 -0.205078125 t-0.014648 -0.21484 q-0.009765625 -0.078125 -0.01953125 -0.1513671875 t-0.0097656 -0.16113 q0 -0.0390625 -0.0048828125 -0.087890625 t-0.0048828 -0.10742 q0.0390625 -0.859375 -0.05859375 -1.6015625 q-0.009765625 -0.048828125 -0.009765625 -0.1611328125 t0.019531 -0.28809 q0.009765625 -0.21484375 0.05859375 -0.458984375 q0.029296875 -0.3515625 0.3125 -0.3515625 q0.3125 0 0.3125 0.37109375 q0.009765625 0.302734375 0.0244140625 0.6103515625 t0.014648 0.61035 q0.009765625 0.44921875 -0.01953125 0.8984375 t-0.0097656 0.89844 q0.01953125 0.302734375 0.0146484375 0.595703125 t-0.014648 0.58594 q0 0.166015625 0.0048828125 0.3271484375 t0.0048828 0.30762 l0 0.39063 q-0.009765625 0.05859375 -0.0146484375 0.1171875 t-0.0048828 0.10742 q-0.009765625 0.009765625 -0.009765625 0.01953125 t-0.0097656 0.0097656 q-0.107421875 0.146484375 -0.33203125 0.146484375 q-0.263671875 0.01953125 -0.400390625 -0.166015625 q-0.146484375 -0.185546875 -0.2685546875 -0.400390625 t-0.26855 -0.41992 q-0.17578125 -0.234375 -0.3857421875 -0.5029296875 t-0.46387 -0.57129 q-0.09765625 -0.107421875 -0.2734375 -0.390625 l-0.3418 -0.54688 q-0.126953125 -0.1953125 -0.25390625 -0.3955078125 t-0.26367 -0.38574 q-0.05859375 -0.068359375 -0.126953125 -0.1513671875 t-0.14648 -0.1416 t-0.17578 -0.087891 t-0.19531 0 q-0.263671875 0.078125 -0.244140625 0.537109375 q0.009765625 0.33203125 0.0146484375 0.625 t0.024414 0.54688 q0.01953125 0.205078125 -0.0048828125 0.41015625 t-0.024414 0.40039 l0 0.76172 q0 0.244140625 -0.0146484375 0.439453125 t-0.03418 0.35156 z M30 23.251955 q-0.009765625 -0.595703125 -0.0048828125 -1.19140625 t0.0048828 -1.1914 l0 -0.3418 q0 -0.263671875 -0.0146484375 -0.5322265625 t0.0048828 -0.53223 q0.009765625 -0.29296875 0.009765625 -0.5810546875 t0.0097656 -0.58105 q0 -0.3515625 0.166015625 -0.48828125 q0.126953125 -0.09765625 0.44921875 -0.09765625 q0.166015625 -0.009765625 0.2880859375 -0.0146484375 t0.20996 -0.0048828 q0.380859375 -0.009765625 0.76171875 0.0048828125 t0.76172 0.0048828 q0.205078125 -0.009765625 0.41015625 -0.0146484375 t0.40039 0.014648 l0.49805 0.029297 q0.087890625 0.009765625 0.1513671875 0.009765625 t0.1123 0.019531 q0.205078125 0.107421875 0.1953125 0.302734375 q-0.009765625 0.087890625 -0.068359375 0.1416015625 t-0.13184 0.083008 t-0.15137 0.039063 t-0.13672 0.0097656 q-0.595703125 0 -1.181640625 -0.029296875 q-0.05859375 -0.009765625 -0.146484375 -0.009765625 l-0.19531 0 l-0.56641 0 q-0.224609375 0 -0.400390625 0.0048828125 t-0.29297 0.0048828 q-0.166015625 0.009765625 -0.2734375 0.0439453125 t-0.15625 0.1123 q-0.078125 0.1171875 -0.05859375 0.29296875 l0 0.13672 t-0.0097656 0.10742 q-0.01953125 0.1171875 -0.029296875 0.2490234375 t0 0.28809 q0 0.2734375 0.21484375 0.458984375 q0.17578125 0.15625 0.634765625 0.126953125 q0.205078125 -0.009765625 0.4052734375 -0.0341796875 t0.40527 -0.014648 q0.087890625 0 0.2294921875 0.0048828125 t0.33691 -0.0048828 q0.390625 -0.009765625 0.52734375 0.13671875 q0.048828125 0.068359375 0.0390625 0.224609375 q-0.029296875 0.17578125 -0.2734375 0.21484375 q-0.224609375 0.0390625 -0.361328125 0.0390625 q-0.17578125 0.009765625 -0.3466796875 0.0048828125 t-0.34668 0.0048828 q-0.21484375 0.01953125 -0.439453125 0.009765625 t-0.46875 -0.029297 q-0.029296875 0 -0.068359375 -0.0048828125 t-0.068359 -0.0048828 l-0.0097656 0 q-0.107421875 -0.01953125 -0.21484375 0.048828125 q-0.17578125 0.107421875 -0.1953125 0.37109375 q-0.01953125 0.25390625 0 0.439453125 q0.009765625 0.107421875 0.0146484375 0.1953125 t-0.0048828 0.15625 q-0.01953125 0.146484375 -0.0341796875 0.2880859375 t-0.03418 0.28809 q-0.029296875 0.37109375 0.09765625 0.556640625 q0.166015625 0.224609375 0.576171875 0.224609375 q0.322265625 0 0.654296875 -0.0146484375 t0.66406 -0.03418 q0.302734375 -0.009765625 0.6201171875 0.01953125 t0.62988 0.029297 q0.1171875 0 0.3125 -0.0048828125 t0.30273 0.053711 q0.09765625 0.05859375 0.107421875 0.17578125 q0.107421875 0.3515625 -0.302734375 0.37109375 q-0.64453125 0.029296875 -1.264648438 0.01953125 t-1.2451 0 q-0.0390625 0 -0.0732421875 0.0048828125 t-0.063477 0.0048828 l-0.38574 0 t-0.26855 -0.0097656 q-0.068359375 0 -0.1611328125 -0.0048828125 t-0.20996 -0.014648 q-0.09765625 -0.009765625 -0.1611328125 -0.01953125 t-0.092773 -0.019531 q-0.29296875 -0.087890625 -0.29296875 -0.546875 z M40.68355 22.929675 q0.458984375 -0.263671875 0.537109375 0.17578125 q0.0390625 0.185546875 -0.1953125 0.361328125 q-0.107421875 0.078125 -0.2001953125 0.1318359375 t-0.1709 0.083008 q-0.224609375 0.09765625 -0.4052734375 0.1416015625 t-0.31738 0.063477 q-0.25390625 0.01953125 -0.537109375 0.01953125 t-0.5957 -0.048828 q-0.634765625 -0.09765625 -1.025390625 -0.439453125 q-0.361328125 -0.302734375 -0.595703125 -0.732421875 t-0.38086 -0.86914 l-0.019531 -0.058594 q-0.087890625 -0.283203125 -0.0634765625 -0.6298828125 t0.014648 -0.64941 q0 -0.234375 0.009765625 -0.4150390625 t0.048828 -0.30762 q0.068359375 -0.244140625 0.3125 -0.6640625 q0.263671875 -0.46875 0.595703125 -0.810546875 t0.89844 -0.45898 q0.146484375 -0.01953125 0.5078125 -0.1171875 q0.107421875 -0.029296875 0.2392578125 -0.048828125 t0.29785 -0.0097656 q0.126953125 0 0.2978515625 0.029296875 t0.39551 0.078125 q0.15625 0.048828125 0.478515625 0.205078125 q0.302734375 0.126953125 0.361328125 0.341796875 q0.01953125 0.078125 -0.01953125 0.166015625 q-0.087890625 0.146484375 -0.205078125 0.17578125 q-0.068359375 0.01953125 -0.1708984375 0 t-0.24902 -0.097656 q-0.1953125 -0.09765625 -0.361328125 -0.166015625 t-0.33691 -0.10254 t-0.35156 -0.024414 t-0.39551 0.068359 q-0.5078125 0.15625 -0.712890625 0.263671875 q-0.21484375 0.1171875 -0.5078125 0.556640625 q-0.234375 0.341796875 -0.3564453125 0.7177734375 t-0.1416 0.77148 t0.063477 0.78613 t0.25879 0.75195 l0 0.0097656 l0.0097656 0 q0.419921875 0.78125 1.201171875 0.9765625 q0.56640625 0.13671875 0.87890625 0.05859375 q0.087890625 -0.009765625 0.166015625 -0.029296875 t0.16602 -0.039063 q0.33203125 -0.068359375 0.576171875 -0.21484375 z M48.164096875 18.193375 q-0.13671875 0.15625 -0.44921875 0.13671875 l-0.48828 -0.029297 q-0.146484375 -0.009765625 -0.283203125 -0.01953125 t-0.2832 -0.0097656 q-0.29296875 -0.009765625 -0.4296875 0.126953125 q-0.107421875 0.126953125 -0.107421875 0.419921875 q0 0.13671875 0.0146484375 0.2685546875 t0.014648 0.26855 q0.009765625 0.322265625 0.0146484375 0.5615234375 t0.0048828 0.40527 q0 0.498046875 -0.05859375 0.99609375 q-0.029296875 0.234375 0 0.46875 t0.039063 0.45898 q0.009765625 0.25390625 0.0146484375 0.439453125 t0.0048828 0.3125 l0 0.13184 t-0.0097656 0.20996 q-0.01953125 0.263671875 -0.0390625 0.322265625 q-0.126953125 0.21484375 -0.33203125 0.15625 q-0.25390625 -0.048828125 -0.25390625 -0.37109375 q-0.009765625 -0.29296875 0.0146484375 -0.5908203125 t0.043945 -0.59082 q0.029296875 -0.341796875 -0.0048828125 -0.693359375 t-0.03418 -0.70313 q0 -0.322265625 0.0244140625 -0.6494140625 t0.03418 -0.64941 q0 -0.634765625 -0.205078125 -0.8984375 q-0.107421875 -0.13671875 -0.2587890625 -0.2099609375 t-0.33691 -0.092773 t-0.34668 -0.03418 t-0.31738 -0.014648 l-0.29785 0 t-0.27832 -0.058594 q-0.078125 -0.0390625 -0.09765625 -0.185546875 q-0.01953125 -0.107421875 0.029296875 -0.185546875 q0.068359375 -0.1171875 0.341796875 -0.146484375 q0.029296875 -0.009765625 0.107421875 -0.009765625 q0.41015625 -0.009765625 0.7958984375 0.0341796875 t0.7959 0.014648 q0.166015625 -0.009765625 0.3271484375 -0.029296875 t0.33691 -0.019531 l0.64941 0 t0.64941 -0.0097656 q0.166015625 0 0.2880859375 0.009765625 t0.20996 0.048828 q0.302734375 0.205078125 0.15625 0.41015625 z  M59.05276875 18.193375 q-0.13671875 0.15625 -0.44921875 0.13671875 l-0.48828 -0.029297 q-0.146484375 -0.009765625 -0.283203125 -0.01953125 t-0.2832 -0.0097656 q-0.29296875 -0.009765625 -0.4296875 0.126953125 q-0.107421875 0.126953125 -0.107421875 0.419921875 q0 0.13671875 0.0146484375 0.2685546875 t0.014648 0.26855 q0.009765625 0.322265625 0.0146484375 0.5615234375 t0.0048828 0.40527 q0 0.498046875 -0.05859375 0.99609375 q-0.029296875 0.234375 0 0.46875 t0.039063 0.45898 q0.009765625 0.25390625 0.0146484375 0.439453125 t0.0048828 0.3125 l0 0.13184 t-0.0097656 0.20996 q-0.01953125 0.263671875 -0.0390625 0.322265625 q-0.126953125 0.21484375 -0.33203125 0.15625 q-0.25390625 -0.048828125 -0.25390625 -0.37109375 q-0.009765625 -0.29296875 0.0146484375 -0.5908203125 t0.043945 -0.59082 q0.029296875 -0.341796875 -0.0048828125 -0.693359375 t-0.03418 -0.70313 q0 -0.322265625 0.0244140625 -0.6494140625 t0.03418 -0.64941 q0 -0.634765625 -0.205078125 -0.8984375 q-0.107421875 -0.13671875 -0.2587890625 -0.2099609375 t-0.33691 -0.092773 t-0.34668 -0.03418 t-0.31738 -0.014648 l-0.29785 0 t-0.27832 -0.058594 q-0.078125 -0.0390625 -0.09765625 -0.185546875 q-0.01953125 -0.107421875 0.029296875 -0.185546875 q0.068359375 -0.1171875 0.341796875 -0.146484375 q0.029296875 -0.009765625 0.107421875 -0.009765625 q0.41015625 -0.009765625 0.7958984375 0.0341796875 t0.7959 0.014648 q0.166015625 -0.009765625 0.3271484375 -0.029296875 t0.33691 -0.019531 l0.64941 0 t0.64941 -0.0097656 q0.166015625 0 0.2880859375 0.009765625 t0.20996 0.048828 q0.302734375 0.205078125 0.15625 0.41015625 z M65.37110625 18.085975 q0.205078125 0.205078125 0.3271484375 0.44921875 l0.24902 0.49805 q0.13671875 0.283203125 0.0830078125 0.5712890625 t-0.31738 0.56152 q-0.205078125 0.21484375 -0.68359375 0.341796875 q-0.17578125 0.048828125 -0.3759765625 0.1025390625 t-0.27832 0.22949 q-0.05859375 0.166015625 0.029296875 0.341796875 q0.09765625 0.185546875 0.15625 0.302734375 t0.097656 0.17578 q0.048828125 0.09765625 0.126953125 0.2197265625 t0.18555 0.27832 q0.224609375 0.3125 0.4736328125 0.5859375 t0.50293 0.52734 l0.048828 0.048828 q0.21484375 0.21484375 0.009765625 0.419921875 q-0.224609375 0.224609375 -0.4296875 0.009765625 l-0.29297 -0.29297 t-0.23438 -0.25391 q-0.234375 -0.29296875 -0.439453125 -0.615234375 q-0.146484375 -0.21484375 -0.2978515625 -0.4150390625 t-0.28809 -0.43457 q-0.390625 -0.703125 -0.966796875 -0.927734375 q-0.615234375 -0.224609375 -0.8984375 0.17578125 q-0.087890625 0.13671875 -0.087890625 0.302734375 l0 2.1191 l0 0.12695 q0 0.29296875 -0.302734375 0.302734375 q-0.302734375 -0.009765625 -0.302734375 -0.37109375 q0 -0.224609375 0.0146484375 -0.4638671875 t0.024414 -0.5127 q0.009765625 -0.185546875 -0.0048828125 -0.380859375 t-0.014648 -0.38086 t0.0097656 -0.37109 t0.0097656 -0.37109 q0.009765625 -0.439453125 -0.029296875 -0.908203125 q0 -0.322265625 0.0146484375 -0.654296875 t0.0048828 -0.67383 q-0.009765625 -0.17578125 -0.009765625 -0.3955078125 t0.058594 -0.39551 q0.17578125 -0.234375 0.830078125 -0.234375 l0.30273 0 q0.3515625 0 0.7080078125 0.029296875 t0.70801 0.0097656 q0.810546875 -0.0390625 1.279296875 0.322265625 z M62.62690625 20.195275 q0.37109375 0.009765625 0.654296875 0.009765625 t0.47852 -0.019531 q0.185546875 -0.01953125 0.4150390625 -0.048828125 t0.50293 -0.078125 q0.556640625 -0.1171875 0.72265625 -0.517578125 q0.068359375 -0.146484375 0.048828125 -0.322265625 t-0.1123 -0.32227 t-0.23438 -0.24902 t-0.30762 -0.17578 t-0.32227 -0.10254 q-0.41015625 -0.078125 -0.8154296875 -0.0634765625 t-0.81543 -0.0048828 q-0.078125 0 -0.1513671875 -0.0048828125 t-0.15137 -0.0048828 q-0.205078125 -0.009765625 -0.3125 0.107421875 q-0.087890625 0.09765625 -0.068359375 0.2734375 q0.009765625 0.048828125 0.009765625 0.205078125 q-0.009765625 0.146484375 -0.0341796875 0.283203125 t-0.03418 0.27344 q-0.05859375 0.380859375 0.087890625 0.56640625 q0.126953125 0.17578125 0.439453125 0.1953125 z M74.160146875 23.515625 q0 0.244140625 -0.205078125 0.3125 q-0.17578125 0.078125 -0.3125 -0.1171875 q-0.068359375 -0.09765625 -0.1123046875 -0.17578125 t-0.073242 -0.14648 q-0.13671875 -0.29296875 -0.244140625 -0.5126953125 t-0.21484 -0.35645 q-0.234375 -0.322265625 -0.517578125 -0.41015625 q-0.244140625 -0.078125 -0.78125 -0.01953125 q-0.3125 0.0390625 -0.5908203125 0.048828125 t-0.53223 -0.0097656 q-0.56640625 -0.0390625 -0.83984375 0.361328125 l-0.019531 0.029297 l-0.0097656 0.019531 q-0.09765625 0.1953125 -0.1611328125 0.3857421875 t-0.15137 0.36621 l-0.20508 0.32227 q-0.13671875 0.205078125 -0.283203125 0.224609375 q-0.068359375 0.029296875 -0.1953125 -0.078125 q-0.05859375 -0.05859375 -0.0732421875 -0.1416015625 t0 -0.1709 t0.048828 -0.18066 t0.063477 -0.16113 l0.23438 -0.48828 q0.341796875 -0.703125 0.6396484375 -1.42578125 t0.62988 -1.4551 q0.05859375 -0.126953125 0.1025390625 -0.2392578125 t0.092773 -0.21973 q0.107421875 -0.263671875 0.21484375 -0.5322265625 t0.24414 -0.53223 l0.14648 -0.22461 q0.107421875 -0.17578125 0.205078125 -0.185546875 q0.09765625 -0.01953125 0.25390625 0.166015625 q0.166015625 0.1953125 0.3173828125 0.458984375 t0.25879 0.49805 q0.341796875 0.72265625 0.6396484375 1.450195313 t0.63965 1.4307 q0.107421875 0.21484375 0.2099609375 0.4345703125 t0.21973 0.4248 q0.05859375 0.146484375 0.1220703125 0.283203125 t0.12207 0.27344 q0.048828125 0.107421875 0.078125 0.17578125 t0.039063 0.11719 z M72.226546875 20.781275 q-0.09765625 -0.234375 -0.1904296875 -0.4833984375 t-0.21973 -0.4834 q-0.234375 -0.44921875 -0.517578125 -0.4296875 q-0.107421875 0 -0.1904296875 0.05859375 t-0.1416 0.1416 t-0.10742 0.18066 t-0.078125 0.18555 q-0.107421875 0.29296875 -0.205078125 0.60546875 t-0.18555 0.60547 q-0.068359375 0.21484375 0.01953125 0.322265625 q0.05859375 0.09765625 0.302734375 0.1171875 q0.21484375 0.009765625 0.380859375 0.0146484375 t0.27344 -0.0048828 q0.21484375 0 0.56640625 -0.05859375 q0.361328125 -0.05859375 0.4296875 -0.322265625 q0.029296875 -0.15625 -0.0390625 -0.263671875 q-0.01953125 -0.0390625 -0.0537109375 -0.0927734375 t-0.043945 -0.092773 z M80.732396875 18.359375 l0.029297 0.029297 q0.107421875 0.126953125 0.2001953125 0.283203125 t0.1709 0.35156 q0.05859375 0.13671875 0.1318359375 0.2587890625 t0.12207 0.25879 q0.078125 0.21484375 0.1171875 0.390625 t0.048828 0.33203 t0.0048828 0.33691 t-0.03418 0.40527 q-0.01953125 0.1953125 -0.01953125 0.3857421875 t-0.039063 0.38574 q-0.048828125 0.25390625 -0.1513671875 0.5029296875 t-0.23926 0.47363 q-0.244140625 0.390625 -0.68359375 0.712890625 l-0.078125 0.039063 q-0.107421875 0.078125 -0.185546875 0.087890625 q-0.107421875 0.048828125 -0.205078125 0.0830078125 t-0.18555 0.053711 q-0.5078125 0.1171875 -1.044921875 0.1025390625 t-1.0449 -0.0048828 q-0.185546875 0 -0.44921875 0.0048828125 t-0.41992 -0.092773 q-0.13671875 -0.068359375 -0.17578125 -0.263671875 q-0.009765625 -0.0390625 -0.009765625 -0.166015625 q0 -0.46875 0.009765625 -0.9326171875 t0.029297 -0.93262 q0.01953125 -0.234375 -0.009765625 -0.4833984375 t-0.029297 -0.49316 l0 -1.0156 l0 -0.82031 q0 -0.5859375 0.146484375 -0.76171875 q0.15625 -0.166015625 0.478515625 -0.15625 q0.166015625 0.009765625 0.3076171875 0.0048828125 t0.24902 -0.0048828 q0.37109375 -0.009765625 0.7568359375 0.009765625 t0.7959 0.039063 q0.80078125 0.048828125 1.40625 0.5859375 l0 0.0097656 z M79.453096875 18.388675 l-0.0097656 0 q-0.13671875 -0.01953125 -0.3369140625 -0.01953125 t-0.46387 0.019531 q-0.478515625 0.029296875 -0.7421875 -0.009765625 q-0.4296875 -0.068359375 -0.52734375 0 q-0.146484375 0.107421875 -0.146484375 0.419921875 t0.0097656 0.61523 t-0.0097656 0.5957 q-0.048828125 0.732421875 -0.0341796875 1.450195313 t0.014648 1.4307 q0 0.166015625 0.1171875 0.263671875 q0.1171875 0.107421875 0.458984375 0.05859375 q0.009765625 0 0.0244140625 -0.0048828125 t0.024414 -0.0048828 q0.1953125 -0.009765625 0.3662109375 -0.0048828125 t0.32715 0.014648 q0.5859375 0.0390625 1.123046875 -0.05859375 q0.546875 -0.1171875 0.849609375 -0.712890625 q0.13671875 -0.263671875 0.2392578125 -0.5078125 t0.16113 -0.49316 t0.073242 -0.5127 t-0.014648 -0.57617 q-0.05859375 -0.60546875 -0.390625 -1.201171875 q-0.166015625 -0.283203125 -0.4443359375 -0.46875 t-0.65918 -0.2832 z M84.12109375 23.251955 q-0.009765625 -0.595703125 -0.0048828125 -1.19140625 t0.0048828 -1.1914 l0 -0.3418 q0 -0.263671875 -0.0146484375 -0.5322265625 t0.0048828 -0.53223 q0.009765625 -0.29296875 0.009765625 -0.5810546875 t0.0097656 -0.58105 q0 -0.3515625 0.166015625 -0.48828125 q0.126953125 -0.09765625 0.44921875 -0.09765625 q0.166015625 -0.009765625 0.2880859375 -0.0146484375 t0.20996 -0.0048828 q0.380859375 -0.009765625 0.76171875 0.0048828125 t0.76172 0.0048828 q0.205078125 -0.009765625 0.41015625 -0.0146484375 t0.40039 0.014648 l0.49805 0.029297 q0.087890625 0.009765625 0.1513671875 0.009765625 t0.1123 0.019531 q0.205078125 0.107421875 0.1953125 0.302734375 q-0.009765625 0.087890625 -0.068359375 0.1416015625 t-0.13184 0.083008 t-0.15137 0.039063 t-0.13672 0.0097656 q-0.595703125 0 -1.181640625 -0.029296875 q-0.05859375 -0.009765625 -0.146484375 -0.009765625 l-0.19531 0 l-0.56641 0 q-0.224609375 0 -0.400390625 0.0048828125 t-0.29297 0.0048828 q-0.166015625 0.009765625 -0.2734375 0.0439453125 t-0.15625 0.1123 q-0.078125 0.1171875 -0.05859375 0.29296875 l0 0.13672 t-0.0097656 0.10742 q-0.01953125 0.1171875 -0.029296875 0.2490234375 t0 0.28809 q0 0.2734375 0.21484375 0.458984375 q0.17578125 0.15625 0.634765625 0.126953125 q0.205078125 -0.009765625 0.4052734375 -0.0341796875 t0.40527 -0.014648 q0.087890625 0 0.2294921875 0.0048828125 t0.33691 -0.0048828 q0.390625 -0.009765625 0.52734375 0.13671875 q0.048828125 0.068359375 0.0390625 0.224609375 q-0.029296875 0.17578125 -0.2734375 0.21484375 q-0.224609375 0.0390625 -0.361328125 0.0390625 q-0.17578125 0.009765625 -0.3466796875 0.0048828125 t-0.34668 0.0048828 q-0.21484375 0.01953125 -0.439453125 0.009765625 t-0.46875 -0.029297 q-0.029296875 0 -0.068359375 -0.0048828125 t-0.068359 -0.0048828 l-0.0097656 0 q-0.107421875 -0.01953125 -0.21484375 0.048828125 q-0.17578125 0.107421875 -0.1953125 0.37109375 q-0.01953125 0.25390625 0 0.439453125 q0.009765625 0.107421875 0.0146484375 0.1953125 t-0.0048828 0.15625 q-0.01953125 0.146484375 -0.0341796875 0.2880859375 t-0.03418 0.28809 q-0.029296875 0.37109375 0.09765625 0.556640625 q0.166015625 0.224609375 0.576171875 0.224609375 q0.322265625 0 0.654296875 -0.0146484375 t0.66406 -0.03418 q0.302734375 -0.009765625 0.6201171875 0.01953125 t0.62988 0.029297 q0.1171875 0 0.3125 -0.0048828125 t0.30273 0.053711 q0.09765625 0.05859375 0.107421875 0.17578125 q0.107421875 0.3515625 -0.302734375 0.37109375 q-0.64453125 0.029296875 -1.264648438 0.01953125 t-1.2451 0 q-0.0390625 0 -0.0732421875 0.0048828125 t-0.063477 0.0048828 l-0.38574 0 t-0.26855 -0.0097656 q-0.068359375 0 -0.1611328125 -0.0048828125 t-0.20996 -0.014648 q-0.09765625 -0.009765625 -0.1611328125 -0.01953125 t-0.092773 -0.019531 q-0.29296875 -0.087890625 -0.29296875 -0.546875 z"></path></g><g id="SvgjsG1054" transform="translate(-1.6391277313232422e-7,0) scale(2.1833694920607467)" rel="mainfill" name="outline_container" xmlns:name="outlineContainer_mainfill" fill="#8519a2"><path xmlns="http://www.w3.org/2000/svg" d="M109.2 65.1a1.6 1.6 0 0 1 0-.3 56.6 56.6 0 0 0 .5-7.8 2 2 0 0 1 .6-1.4 2 2 0 0 1 1.3-.6q-.1-2.1-.3-4.1h-.2a2 2 0 0 1-1.9-1.7 56.3 56.3 0 0 0-1.6-7.6 2 2 0 0 1-.1-.6 2 2 0 0 1 1.4-1.9q-.6-2-1.4-3.9l-.8.2a1.9 1.9 0 0 1-1.8-1.2 56.2 56.2 0 0 0-3.7-6.9 2 2 0 0 1-.3-1.1 2 2 0 0 1 .9-1.7l-2.4-3.3a1.9 1.9 0 0 1-1.3.5 1.9 1.9 0 0 1-1.5-.7 55 55 0 0 0-5.5-5.5 2 2 0 0 1-.2-2.8l-3.3-2.5a1.9 1.9 0 0 1-2.7.6A53.8 53.8 0 0 0 78.1 7 2 2 0 0 1 77 5.1a2 2 0 0 1 .2-.8l-3.8-1.5a2 2 0 0 1-1.9 1.4H71a53.1 53.1 0 0 0-7.5-1.6 2 2 0 0 1-1.7-2V.3L57.7 0a2 2 0 0 1-2 2 53.1 53.1 0 0 0-7.7.6h-.3A2 2 0 0 1 45.9.9l-4 .9a1.9 1.9 0 0 1 .1.5 2 2 0 0 1-1.4 1.9A52.8 52.8 0 0 0 33.4 7l-.8.2A2 2 0 0 1 30.8 6l-3.6 2a2 2 0 0 1-.6 2.7 53.9 53.9 0 0 0-6.1 4.7 1.9 1.9 0 0 1-2.7-.2l-2.9 2.9A2 2 0 0 1 15 21a54.5 54.5 0 0 0-4.6 6.3 1.9 1.9 0 0 1-2.7.6q-1 1.8-1.9 3.6a2 2 0 0 1 .9 2.6A55.7 55.7 0 0 0 4 41.5 2 2 0 0 1 2.2 43h-.5q-.5 2-.9 4.1a2 2 0 0 1 1.6 2v.3a56.8 56.8 0 0 0-.5 7.6A2 2 0 0 1 0 59q.1 2.1.3 4.1h.2a2 2 0 0 1 1.9 1.7A55.5 55.5 0 0 0 4 72.4a2.1 2.1 0 0 1 .1.6 2 2 0 0 1-1.3 2q.6 2 1.4 3.9l.8-.2a2 2 0 0 1 1.8 1.2 56.1 56.1 0 0 0 3.7 6.9 2 2 0 0 1-.6 2.7l2.4 3.3a1.9 1.9 0 0 1 1.2-.5 1.9 1.9 0 0 1 1.5.7 54.3 54.3 0 0 0 5.4 5.5 2 2 0 0 1 .7 1.5 2 2 0 0 1-.5 1.3l3.3 2.5a1.9 1.9 0 0 1 2.7-.6h.1a53.2 53.2 0 0 0 6.7 3.7 2 2 0 0 1 1.1 1.8 2 2 0 0 1-.2.8l3.8 1.5a2 2 0 0 1 1.9-1.4h.6a52.6 52.6 0 0 0 7.5 1.7 2 2 0 0 1 1.7 2v.2l4.1.3a2 2 0 0 1 .6-1.4 1.9 1.9 0 0 1 1.4-.6 54 54 0 0 0 7.7-.6h.3a2 2 0 0 1 1.9 1.7l4-.9a2.1 2.1 0 0 1-.1-.5 2 2 0 0 1 1.4-1.9 53 53 0 0 0 7.2-2.7l.8-.2a2 2 0 0 1 1.8 1.1l3.6-2a2 2 0 0 1 .6-2.7 54.4 54.4 0 0 0 6.2-4.7 1.9 1.9 0 0 1 2.7.2l2.9-2.9a2 2 0 0 1-.2-2.8 55.3 55.3 0 0 0 4.6-6.3 1.9 1.9 0 0 1 1.6-.9 1.9 1.9 0 0 1 1 .3l2-3.6a2 2 0 0 1-.9-2.6 56.1 56.1 0 0 0 2.7-7.3 2 2 0 0 1 1.9-1.4h.5q.5-2 .9-4.1a2 2 0 0 1-1.8-1.9zm-53.4 44.2C27.5 109.3 4.5 85.8 4.5 57s23-52.4 51.3-52.4 51.4 23.5 51.4 52.4-23 52.3-51.4 52.3z" fill=""></path></g></svg>